<?xml version="1.0" standalone="no"?>
<!DOCTYPE svg PUBLIC "-//W3C//DTD SVG 20010904//EN"
 "http://www.w3.org/TR/2001/REC-SVG-20010904/DTD/svg10.dtd">
<svg version="1.0" xmlns="http://www.w3.org/2000/svg"
 width="512.000000pt" height="512.000000pt" viewBox="0 0 512.000000 512.000000"
 preserveAspectRatio="xMidYMid meet">
<metadata>
Created by potrace 1.14, written by Peter Selinger 2001-2017
</metadata>
<g transform="translate(0.000000,512.000000) scale(0.100000,-0.100000)"
fill="#000000" stroke="none">
<path d="M2920 3420 c0 -26 -7 -33 -30 -32 -18 1 -68 11 -82 17 -13 5 -19 1
-23 -17 -5 -19 -14 -24 -41 -26 -20 -2 -50 -11 -69 -21 -20 -10 -51 -17 -79
-16 -36 2 -47 -2 -51 -16 -8 -23 -37 -33 -107 -34 -48 0 -60 -5 -82 -28 -14
-15 -38 -30 -54 -33 -16 -3 -42 -17 -57 -30 -29 -25 -49 -33 -97 -38 -15 -1
-45 -15 -67 -30 -22 -16 -59 -34 -82 -42 -23 -8 -54 -27 -69 -42 -14 -15 -46
-38 -70 -52 -23 -14 -48 -30 -54 -35 -27 -24 -124 -102 -156 -125 -128 -90
-133 -92 -180 -86 -62 9 -78 12 -135 31 -27 9 -72 18 -100 21 -27 3 -68 9 -90
15 -22 5 -54 11 -71 13 -17 2 -36 6 -42 10 -28 17 -211 3 -224 -17 -8 -14 38
-106 57 -114 8 -3 13 -8 10 -13 -2 -4 31 -41 75 -82 l80 -75 -29 -24 c-16 -13
-52 -69 -82 -124 -29 -55 -61 -108 -71 -118 -10 -10 -18 -25 -18 -33 0 -13 10
-15 53 -11 95 9 151 27 232 77 22 14 42 25 45 25 11 0 170 99 192 120 47 44
87 57 152 53 90 -6 116 -28 177 -154 53 -111 68 -126 169 -175 45 -22 74 -28
127 -29 37 -1 105 -2 150 -3 47 0 87 4 95 10 13 11 122 10 219 -2 26 -3 74 -8
106 -11 144 -11 196 -24 187 -49 -3 -8 -10 -15 -14 -15 -5 0 -5 -12 -1 -27 5
-19 15 -28 32 -29 13 -2 33 -5 44 -7 11 -2 25 -2 30 2 6 3 15 6 20 8 6 1 21 4
35 8 14 3 47 10 73 15 54 11 63 15 94 43 16 14 40 21 85 23 156 10 190 16 349
70 74 25 159 49 189 54 72 11 125 30 260 94 109 53 174 96 210 139 14 17 20
32 14 34 -15 5 -5 55 15 73 18 17 25 40 13 40 -4 0 -33 46 -62 102 -68 126
-151 214 -305 322 -102 72 -355 206 -389 206 -8 0 -17 4 -20 8 -2 4 -19 9 -38
10 -32 3 -89 35 -138 80 -14 12 -28 22 -32 22 -3 0 -13 6 -20 13 -11 11 -77
57 -116 81 -10 6 -11 1 -6 -18 5 -22 3 -26 -15 -26 -11 0 -35 9 -53 19 -17 11
-35 18 -40 15 -4 -3 -8 0 -8 5 0 6 -4 11 -10 11 -5 0 -10 -13 -10 -30z"/>
<path d="M4056 3194 c-3 -10 -17 -31 -31 -46 l-26 -28 21 -28 c22 -30 28 -47
30 -97 1 -28 2 -28 14 12 8 23 23 57 35 76 19 32 20 37 6 51 -9 8 -22 30 -29
47 -12 28 -14 30 -20 13z"/>
<path d="M4220 2387 c-17 -42 -18 -38 2 -66 l17 -24 19 23 c17 20 17 26 6 38
-8 7 -14 22 -14 32 0 32 -15 30 -30 -3z"/>
</g>
</svg>
